# xmcd
#
# Track frame offsets:
#       150
#       10514
#       22682
#       35416
#       47702
#       61556
#       71518
#       83022
#       95268
#       106915
#       116578
#       127007
#
# Disc length: 1867 seconds
#
# Revision: 0
# Processed by: cddbd v1.5.2PL0 Copyright (c) Steve Scherf et al.
# Submitted via: WhereIsIt 3.97
#
DISCID=8307490c
DTITLE=Jake Hooker - Lost Along The Way
DYEAR=2009
DGENRE=Country
TTITLE0=Lost Along The Way
TTITLE1=Talkin"Bout You
TTITLE2=Drowning My Troubles Till They've Learned How To Swin
TTITLE3=Night Coach Out Of Dallas
TTITLE4=Don't Give Up On Me
TTITLE5=It's Warm With Love In Here
TTITLE6=Another Town
TTITLE7=It Keeps Slipping My Mind
TTITLE8=Nothing Left To Lose
TTITLE9=You're From Texas
TTITLE10=Mine Is A Lonely Life
TTITLE11=Rodeo Man
EXTD=
EXTT0=
EXTT1=
EXTT2=
EXTT3=
EXTT4=
EXTT5=
EXTT6=
EXTT7=
EXTT8=
EXTT9=
EXTT10=
EXTT11=
PLAYORDER=
